<?xml version="1.0" encoding="UTF-8" standalone="no"?> <svg xmlns:dc="http://purl.org/dc/elements/1.1/" xmlns:cc="http://creativecommons.org/ns#" xmlns:rdf="http://www.w3.org/1999/02/22-rdf-syntax-ns#" xmlns:svg="http://www.w3.org/2000/svg" xmlns="http://www.w3.org/2000/svg" viewBox="0 0 482.66666 49.333332" height="49.333332" width="482.66666" xml:space="preserve" id="svg2" version="1.1"><metadata id="metadata8"></metadata><defs id="defs6"></defs><g transform="matrix(1.3333333,0,0,-1.3333333,0,49.333333)" id="g10"><g transform="scale(0.1)" id="g12"><path id="path14" style="fill:#000000;fill-opacity:1;fill-rule:nonzero;stroke:none" d="M 0,365.23 H 92.5391 L 190.121,127.07 h 4.02 l 97.808,238.16 H 384.73 V 10.7383 H 311.449 V 241.52 H 308.59 L 216.52,12.3789 H 167.031 L 75.6602,241.988 H 72.8086 V 10.7383 L 0,10.7383 Z"></path><path id="path16" style="fill:#000000;fill-opacity:1;fill-rule:nonzero;stroke:none" d="M 418.629,10.7383 540.941,365.23 h 96.598 L 759.57,10.7383 Z m 100.16,61.8398 H 660.121 L 590.66,284.34 h -2.851 z"></path><path id="path18" style="fill:#000000;fill-opacity:1;fill-rule:nonzero;stroke:none" d="m 793.48,10.7383 h 74.7305 v 354.492 H 793.48 Z"></path><path id="path20" style="fill:#000000;fill-opacity:1;fill-rule:nonzero;stroke:none" d="m 1052.7,5.73828 c -28.52,0 -53.438,4.38282 -74.688,13.08982 -21.102,8.711 -37.582,21.7227 -49.492,39.0235 -11.719,17.2695 -17.93,38.707 -18.559,64.2184 h 72.34 c 0.937,-11.718 4.418,-21.64 10.469,-29.7302 6.019,-7.9296 14.11,-13.8593 24.26,-17.8515 10.16,-3.9375 21.8,-5.9375 34.96,-5.9375 12.7,0 23.71,1.8398 33.09,5.4687 9.49,3.6407 16.8,8.711 21.87,15.2422 5.24,6.6367 7.85,14.3283 7.85,23.0783 0,7.93 -2.38,14.57 -7.14,19.961 -4.57,5.398 -11.41,10 -20.43,13.789 -8.91,3.832 -19.77,7.23 -32.62,10.238 l -38.79,9.531 c -29.8,7.153 -53.359,18.481 -70.66,34.02 -17.269,15.711 -25.898,36.641 -25.898,62.82 0,21.403 5.777,40.11 17.34,56.129 11.757,16.211 27.699,28.711 47.808,37.621 20.32,9.02 43.4,13.551 69.26,13.551 26.33,0 49.26,-4.531 68.75,-13.551 19.69,-9.07 34.96,-21.57 45.94,-37.621 11.09,-16.019 16.8,-34.488 17.11,-55.43 h -72.07 c -1.29,13.832 -7.23,24.614 -17.85,32.383 -10.47,7.77 -24.69,11.641 -42.58,11.641 -12.07,0 -22.38,-1.762 -30.94,-5.231 -8.4,-3.32 -14.84,-8.011 -19.3,-14.031 -4.41,-6.051 -6.64,-12.93 -6.64,-20.699 0,-8.242 2.539,-15.231 7.62,-20.941 5.08,-5.54 11.8,-10.149 20.2,-13.79 8.59,-3.511 17.93,-6.441 28.08,-8.82 l 31.64,-7.859 c 15.39,-3.473 29.61,-8.16 42.62,-14.02 13.01,-5.703 24.26,-12.769 33.75,-21.172 9.69,-8.398 17.15,-18.32 22.38,-29.769 5.24,-11.25 7.85,-24.25 7.85,-39.02 0,-21.7184 -5.46,-40.5895 -16.4,-56.6012 -10.78,-15.8594 -26.41,-28.168 -46.88,-36.879 -20.47,-8.5507 -45.19,-12.85152 -74.25,-12.85152 z"></path><path id="path22" style="fill:#000000;fill-opacity:1;fill-rule:nonzero;stroke:none" d="m 1391.64,5.98047 c -31.41,0 -59.65,7.14063 -84.69,21.39843 -25.07,14.3008 -44.88,34.9609 -59.49,62.1094 -14.61,27.1137 -21.87,59.8907 -21.87,98.2417 0,38.719 7.26,71.649 21.87,98.75 14.61,27.309 34.42,47.969 59.49,62.11 25.04,14.262 53.28,21.41 84.69,21.41 31.41,0 59.65,-7.148 84.69,-21.41 25.08,-14.141 44.84,-34.801 59.26,-62.11 14.61,-27.101 21.87,-60.031 21.87,-98.75 0,-38.511 -7.26,-71.359 -21.87,-98.4683 -14.42,-27.1523 -34.18,-47.8125 -59.26,-62.1133 -25.04,-14.0976 -53.28,-21.16793 -84.69,-21.16793 z m 0,66.12893 c 18.24,0 34.1,4.4492 47.58,13.3203 13.48,8.9101 23.87,21.9103 31.17,39.0193 7.46,17.313 11.17,38.403 11.17,63.281 0,25.079 -3.71,46.25 -11.17,63.559 -7.3,17.262 -17.69,30.352 -31.17,39.262 -13.48,8.859 -29.34,13.32 -47.58,13.32 -18.09,0 -33.87,-4.461 -47.34,-13.32 -13.48,-8.91 -24.03,-22 -31.64,-39.262 -7.46,-17.309 -11.18,-38.48 -11.18,-63.559 0,-24.878 3.72,-45.968 11.18,-63.281 7.61,-17.109 18.16,-30.1092 31.64,-39.0193 13.47,-8.8711 29.25,-13.3203 47.34,-13.3203 z"></path><path id="path24" style="fill:#000000;fill-opacity:1;fill-rule:nonzero;stroke:none" d="M 1900.94,365.23 V 10.7383 h -64.73 L 1682.27,233.672 h -3.09 V 10.7383 h -74.73 V 365.23 h 65.71 l 152.96,-222.929 h 3.09 V 365.23 Z"></path><path id="path26" style="fill:#000000;fill-opacity:1;fill-rule:nonzero;stroke:none" d="M 2058.67,10.7383 V 365.23 h 141.8 c 26.01,0 47.77,-3.859 65.19,-11.64 17.46,-7.77 30.55,-18.469 39.26,-32.141 8.91,-13.64 13.32,-29.34 13.32,-47.109 0,-13.789 -2.85,-25.899 -8.55,-36.371 -5.55,-10.469 -13.17,-19.059 -22.85,-25.699 -9.5,-6.68 -20.43,-11.372 -32.82,-14.071 v -3.551 c 13.48,-0.628 26.18,-4.449 38.05,-11.41 11.91,-6.988 21.52,-16.828 28.79,-29.527 7.46,-12.5 11.21,-27.5 11.21,-44.961 0,-18.7109 -4.69,-35.5117 -14.06,-50.4297 -9.18,-14.7695 -22.81,-26.4101 -40.9,-34.9609 -18.09,-8.4375 -40.47,-12.6211 -67.11,-12.6211 z m 74.73,61.1406 h 61.37 c 20.78,0 35.93,4.0625 45.46,12.1406 9.65,8.0899 14.5,18.7895 14.5,32.1095 0,9.851 -2.39,18.48 -7.15,25.941 -4.57,7.621 -11.25,13.551 -19.96,17.852 -8.75,4.258 -19.14,6.406 -31.17,6.406 h -63.05 z m 0,144.8831 h 55.66 c 10.32,0 19.42,1.828 27.35,5.508 8.12,3.628 14.45,8.781 19.06,15.429 4.61,6.832 6.87,14.922 6.87,24.289 0,12.703 -4.49,22.891 -13.55,30.672 -8.87,7.93 -21.64,11.91 -38.28,11.91 h -57.11 z"></path><path id="path28" style="fill:#000000;fill-opacity:1;fill-rule:nonzero;stroke:none" d="M 2372.15,10.7383 V 365.23 h 74.73 V 72.5781 h 152.03 V 10.7383 Z"></path><path id="path30" style="fill:#000000;fill-opacity:1;fill-rule:nonzero;stroke:none" d="M 2936.88,365.23 V 10.7383 h -64.73 L 2718.2,233.672 h -3.08 V 10.7383 h -74.69 V 365.23 h 65.66 l 152.97,-222.929 h 3.09 V 365.23 Z"></path><path id="path32" style="fill:#000000;fill-opacity:1;fill-rule:nonzero;stroke:none" d="m 3115.66,10.7383 h -92.3 v 64.2226 h 88.98 c 22.39,0 41.1,3.9102 56.18,11.6797 15.19,7.9297 26.64,20.1994 34.25,36.8794 7.78,16.789 11.64,38.39 11.64,64.718 0,26.172 -3.86,47.582 -11.64,64.223 -7.61,16.641 -19.06,28.867 -34.25,36.641 -15.08,7.929 -33.72,11.918 -55.94,11.918 h -90.63 v 64.21 h 94.93 c 35.66,0 66.36,-7.14 92.07,-21.402 25.7,-14.098 45.43,-34.418 59.25,-60.898 13.79,-26.328 20.71,-57.891 20.71,-94.692 0,-36.988 -7,-68.707 -20.94,-95.1872 -13.83,-26.4922 -33.63,-46.8789 -59.49,-61.1406 -25.86,-14.1407 -56.8,-21.1719 -92.82,-21.1719 z m -50.89,0 h -74.7305 v 354.492 h 74.7305 z"></path><path id="path34" style="fill:#000000;fill-opacity:1;fill-rule:nonzero;stroke:none" d="M 3335.9,10.7383 V 365.23 h 139.65 c 26.79,0 49.65,-4.761 68.51,-14.25 19.03,-9.531 33.56,-23.011 43.56,-40.468 10.15,-17.274 15.23,-37.66 15.23,-61.133 0,-23.481 -5.08,-43.719 -15.23,-60.668 -10.16,-16.992 -24.92,-30 -44.26,-39.02 -19.18,-8.91 -42.42,-13.32 -69.73,-13.32 h -93.47 v 60.188 h 81.36 c 14.42,0 26.33,1.992 35.67,5.941 9.53,3.98 16.6,9.84 21.17,17.621 4.76,7.77 7.15,17.5 7.15,29.258 0,11.871 -2.39,21.793 -7.15,29.723 -4.57,8.089 -11.64,14.218 -21.17,18.32 -9.49,4.297 -21.49,6.449 -35.9,6.449 h -50.7 V 10.7383 Z m 196.76,0 -86.37,161.2927 h 80.9 l 88.24,-161.2927 z"></path></g></g></svg> 